# xmcd
#
# Track frame offsets: 
#        150
#        19663
#        28106
#        37455
#        49801
#        67420
#        77364
#        88137
#        103106
#        120568
#
# Disc length: 1910 seconds
#
# Revision: 0
# Processed by: cddbd v1.5.2PL0 Copyright (c) Steve Scherf et al.
# Submitted via: ExactAudioCopy v0.99pb3
#
DISCID=8907740a
DTITLE=The Soda Men - Moon
DYEAR=2004
DGENRE=Indie
TTITLE0=Everything
TTITLE1=Me And Bowie
TTITLE2=Gorgeous (And You Know It)
TTITLE3=New York City
TTITLE4=The Ballad Of Jimmy Martin
TTITLE5=My Lover Is A Ghost
TTITLE6=Hoping And Praying
TTITLE7=When Elvis Got Drafted
TTITLE8=Sad Baby
TTITLE9=Moon
EXTD=
EXTT0=
EXTT1=
EXTT2=
EXTT3=
EXTT4=
EXTT5=
EXTT6=
EXTT7=
EXTT8=
EXTT9=
PLAYORDER=
